<?xml version="1.0" encoding="utf-8"?>
<!-- Generator: Adobe Illustrator 21.0.0, SVG Export Plug-In . SVG Version: 6.00 Build 0)  -->
<svg version="1.1" xmlns="http://www.w3.org/2000/svg" xmlns:xlink="http://www.w3.org/1999/xlink" x="0px" y="0px"
	 viewBox="0 0 300 300" style="enable-background:new 0 0 300 300;" xml:space="preserve">
<style type="text/css">
	.st0{fill:#FFFFFF;}
</style>
<g id="Livello_2">
	<rect x="0" class="st0" width="300" height="300"/>
</g>
<g id="Livello_1">
	<path d="M208.1,79.2c-3.3-5.6-8.4-8.5-13.4-10.7c-1.6-0.7-3.2-1.1-4.7-1.6c-1.4-0.4-2.7-0.8-3.8-1.3c-0.6-0.3-0.7-0.4-1.5-1.7
		c-19.2-33.2-82.5-13.3-85.1-12.4c-1.3,0.4-2.1,1.7-1.8,3.1c0.1,0.3,1.3,6.3,7.6,15.3c-11.7,7.4-17.6,19.2-17,34.4
		c0.8,11.2,2,21.2,7.1,29.9c-3.3,1.5-5.2,3.9-6,6.4c-1.3,4.1-0.1,10.2,7.3,14.9c3.5,2.2,7.1,1.8,9.3,1.6c0.2,0,0.5-0.1,0.7-0.1
		c5.9,8.2,10.6,11.4,15.4,14.1c6.9,4,14.4,5.4,18.6,5.9v6.8h-17.1c-2.7,0-5.3,1.1-7.3,3c-1.9,2-3,4.5-3,7.2c0,1.5,0.4,2.9,1,4.2
		c-4.1,3.3-7,7.1-10.2,11.6c-4.1,5.9-5.4,16.2-5.8,23.8c-0.4,6.6,0.1,14.2,0.6,18.5c0.3,2.4,2.2,3,7,3c1.5,0,3.4-0.1,5.6-0.1
		c2.9-0.1,6.3-0.2,9.8-0.2l6.4,0c7.5,0,17.8,0.1,22,0l4.8,0c0,0,0,0,0.1,0c0,0,0,0,0.1,0l3.7,0l5.9,0c2.6,0,6,0,12.2,0
		c2.4,0,4.7,0,7,0c12.6,0.1,15.6,0.1,16-3.2c0.5-3.7,0.5-9.8,0-18c-0.4-7.6-1.8-17.9-5.9-23.8c-3.2-4.4-6-8.2-10-11.4
		c0.6-1.4,1-2.8,1-4.3c0-2.7-1.1-5.3-3-7.3c-1.9-1.9-4.5-3-7.2-3h-17.1v-6.6c4.6-0.4,14.5-1.8,21.9-6.1c4.5-2.6,8.1-5.6,14-14.1
		c0.2,0,0.5,0.1,0.7,0.1c2.2,0.2,5.8,0.7,9.3-1.6c7.5-4.7,8.7-10.8,7.3-14.9c-0.8-2.5-2.9-5.1-6.4-6.6c0.2-0.3,0.4-0.6,0.7-0.9
		c0.3-0.5,0.7-0.9,1-1.3c4.7-5.7,5.8-25,5.8-26.9c0-1.7,0-3.4,0.1-5.1C211.8,92.9,211.9,85.6,208.1,79.2z M119.3,249.5
		c-2.9,0-5.6,0.1-8,0.2c-2.7,0.1-5.6,0.2-7.3,0.1c-0.4-4.3-0.7-10.5-0.4-15.8c0-0.1,0-0.1,0-0.2h15.7V249.5z M194.3,249.4
		c-2.2,0.2-6.9,0.2-10.8,0.1c-1.6,0-3.2,0-4.9,0v-15.7h15.1c0.1,0,0.2-0.1,0.3-0.1c0,0.1,0,0.2,0,0.3
		C194.5,240.7,194.6,246,194.3,249.4z M205.4,142.3c0.9,2.8-1.1,6.2-5.1,8.7c-1.9,1.2-4,1-5.8,0.8c-1.7-0.2-3.9-0.4-5.2,1.4
		c-5.7,8.2-8.9,11-12.8,13.3c-8.7,5-21.9,5.5-22,5.5c-1.5,0.1-2.6,1.3-2.6,2.8c0,0.1,0.1,0.2,0.1,0.3c0,0.1,0,0.1,0,0.2V199h-5.8
		v-24.1c0-0.4-0.1-0.8-0.3-1.2c-0.3-1-1.2-1.7-2.4-1.8c-1.7-0.1-10.8-0.9-18.6-5.4c-4.5-2.6-8.7-5.4-14.2-13.3
		c-1.3-1.9-3.4-1.6-5.2-1.4c-1.8,0.2-3.9,0.4-5.8-0.8c-4-2.5-6-5.9-5.1-8.7c0.9-2.7,4.3-4.3,8.8-4c1.5,0.1,2.7-1,2.8-2.5
		c0-0.8-0.2-1.5-0.7-2c2.2-5,2.4-10.2,2.6-15.6l0-0.5c9.3-3.8,11.1-14.7,11.7-18.4c1.1-6.3,0.2-11.2-1.1-16
		c12.3,7.1,28.6,6,29.3,5.9c7.4-0.2,19.8-1.3,29.3-5.7c-1.1,11.4,4.5,22.7,11.6,29c4,3.5,4.5,8.2,5,13.6c0.2,2.2,0.5,4.4,0.9,6.6
		c0,0.2,0.1,0.4,0.1,0.6c-0.8,0.5-1.3,1.4-1.2,2.4c0.1,1.5,1.4,2.6,2.8,2.5C201.1,138.1,204.6,139.6,205.4,142.3z M206.3,99.8
		c0,1.8-0.1,3.6-0.1,5.3c0,3.5-1.6,19.8-4.6,23.4c-0.4,0.4-0.8,1-1.2,1.6c-0.1,0.2-0.3,0.5-0.5,0.7c-0.3-1.7-0.5-3.5-0.7-5.2
		c-0.6-6-1.3-12.1-6.8-17c-8.1-7.2-11.9-19.9-8.8-29.5c0.4-1.1,0-2.3-1-3c-0.9-0.7-2.2-0.7-3.2,0c-8.7,6.4-25,7.6-31.8,7.8
		c-0.2,0-20.1,1.3-30.8-8.4c-0.4-0.4-0.8-0.8-1.2-1.2c-0.8-0.9-2.2-1.1-3.3-0.5c-1.1,0.6-1.6,1.8-1.3,3c0.4,1.6,0.9,3.1,1.3,4.5
		c1.8,5.9,3.2,10.5,2,17.1c-1.4,8.6-4.5,13.3-9.8,14.8c-1.1,0.3-1.9,1.3-2,2.5l-0.1,2.4c-0.2,5.3-0.3,9.9-2.3,14.1
		c-4.8-7.8-5.9-17.1-6.7-28.2c-0.6-14.2,5.1-24.6,16.8-30.9c0.7-0.4,1.2-1,1.3-1.8c0.2-0.8,0-1.6-0.5-2.2
		c-4.5-5.9-6.7-10.6-7.7-13.2c11.8-3.3,61.2-15.3,76.3,10.7c1,1.7,1.8,2.9,3.9,3.9c1.5,0.7,3.1,1.1,4.6,1.5c1.4,0.4,2.8,0.8,4,1.3
		c4.8,2.1,8.6,4.4,11,8.5C206.5,87,206.4,93.2,206.3,99.8z"/>
</g>
</svg>
